<?xml version="1.0" encoding="utf-8"?>

<!DOCTYPE svg PUBLIC "-//W3C//DTD SVG 1.1//EN" "http://www.w3.org/Graphics/SVG/1.1/DTD/svg11.dtd">
<!-- Uploaded to: SVG Repo, www.svgrepo.com, Generator: SVG Repo Mixer Tools -->
<svg height="800px" width="800px" version="1.1" id="_x32_" xmlns="http://www.w3.org/2000/svg" xmlns:xlink="http://www.w3.org/1999/xlink" 
	 viewBox="0 0 512 512"  xml:space="preserve">
<style type="text/css">
	.st0{fill:currentColor;}
</style>
<g>
	<polygon class="st0" points="512,386.058 512,147.816 375.36,266.942 	"/>
	<path class="st0" d="M432.466,0H79.534C35.612,0,0,35.611,0,79.534v2.33l227.884,198.67c8.117,7.048,18.04,10.524,28.116,10.534
		c10.078-0.01,20.02-3.486,28.117-10.534L512,81.864v-2.33C512,35.611,476.389,0,432.466,0z"/>
	<path class="st0" d="M316.777,318.01c-17.359,15.155-39.146,22.786-60.777,22.768c-21.63,0.019-43.398-7.621-60.776-22.768
		l-20.757-18.097L2.059,450.214C10.137,485.583,41.728,512,79.534,512h352.932c37.826,0,69.398-26.417,77.476-61.786
		L337.534,299.913L316.777,318.01z"/>
	<polygon class="st0" points="0,147.816 0,386.058 136.642,266.932 	"/>
</g>
</svg>